<?xml version="1.0" standalone="no"?>
<!DOCTYPE svg PUBLIC "-//W3C//DTD SVG 20010904//EN"
 "http://www.w3.org/TR/2001/REC-SVG-20010904/DTD/svg10.dtd">
<svg version="1.0" xmlns="http://www.w3.org/2000/svg"
 width="512.000000pt" height="512.000000pt" viewBox="0 0 512.000000 512.000000"
 preserveAspectRatio="xMidYMid meet">
<metadata>
Created by potrace 1.14, written by Peter Selinger 2001-2017
</metadata>
<g transform="translate(0.000000,512.000000) scale(0.100000,-0.100000)"
fill="#000000" stroke="none">
<path d="M2359 4496 c-2 -2 -35 -6 -74 -9 -82 -7 -199 -23 -270 -37 -27 -5
-63 -12 -80 -15 -16 -2 -66 -14 -110 -25 -884 -230 -1509 -828 -1620 -1550
-12 -79 -13 -357 -1 -420 9 -51 16 -86 22 -115 13 -67 78 -246 121 -333 72
-148 159 -275 281 -411 37 -41 66 -81 64 -89 -4 -16 -183 -488 -270 -709 -33
-84 -56 -153 -51 -153 4 0 84 36 176 81 223 108 463 220 543 254 36 15 79 33
95 40 17 8 46 20 65 28 19 7 46 18 60 24 20 8 42 2 125 -32 217 -91 481 -164
695 -191 19 -3 46 -7 60 -9 131 -24 611 -24 740 0 14 2 41 6 60 9 19 3 55 8
80 11 77 11 326 74 428 109 305 104 568 249 801 441 48 39 208 201 258 260
173 206 307 493 352 755 21 117 22 363 2 480 -12 75 -59 240 -90 320 -51 126
-163 314 -262 436 -29 36 -233 240 -274 274 -169 141 -434 295 -660 383 -163
63 -406 132 -545 153 -25 3 -54 8 -65 10 -11 1 -42 6 -70 9 -27 3 -61 8 -75
11 -28 6 -505 15 -511 10z"/>
</g>
</svg>
